#!OML:ASF X:\für Bonn\!DataBase\2005_08_10_Bjorn_Final\c3d\bjorn.ASF
:FULLY-SPECIFIED
:DEGREES
63
root -33.1396 18.3271 5.08998 -171.655 -228.668 -178.364
lowerback -0.486927 -1.95238 -6.12968
upperback 9.00308 -1.80553 -3.37577
thorax 9.94872 -1.13449 -0.339084
lowerneck -0.793908 0.721117 -0.435246
upperneck 5.48665 0.713382 6.02985
head 1.83929 0.489628 2.00338
rclavicle 4.37326e-014 -6.36111e-015
rhumerus -51.0251 0.55702 -99.3712
rradius 55.7255
rwrist -23.1256
rhand -19.2676 19.5815
rfingers 7.12502
rthumb 7.0468 -10.2812
lclavicle 4.37326e-014 -6.36111e-015
lhumerus -24.7624 -25.3325 80.9006
lradius 86.0227
lwrist -2.92581
lhand -35.9307 -17.1527
lfingers 7.12502
lthumb -9.04291 12.6334
rfemur -38.3816 -6.08349 15.3498
rtibia 61.5079
rfoot -20.8822 16.042
rtoes -16.5755
lfemur 1.37909 8.68661 -22.8647
ltibia 30.2423
lfoot -25.2214 -2.59813
ltoes -16.7791
64
root -33.0631 18.2941 5.15362 -171.653 -228.443 -178.487
lowerback -0.296127 -1.96883 -6.04064
upperback 9.03027 -1.85948 -3.24953
thorax 9.86629 -1.16013 -0.251957
lowerneck -1.12187 0.798207 -0.35362
upperneck 5.27619 0.827746 5.79167
head 1.8247 0.542794 1.91343
rclavicle -3.97569e-015 -2.38542e-014
rhumerus -51.2953 0.987602 -99.3189
rradius 56.6836
rwrist -23.6672
rhand -19.6866 19.6951
rfingers 7.12502
rthumb 6.64236 -10.1807
lclavicle -3.97569e-015 -2.38542e-014
lhumerus -24.9603 -25.8239 80.7198
lradius 86.4517
lwrist -2.87996
lhand -36.2173 -17.0732
lfingers 7.12502
lthumb -9.3195 12.7008
rfemur -39.126 -5.9305 15.2532
rtibia 61.696
rfoot -20.7968 16.0354
rtoes -16.5284
lfemur 1.70341 8.72507 -22.8234
ltibia 30.104
lfoot -25.3362 -2.36638
ltoes -17.6364
65
root -32.9853 18.2607 5.21992 -171.545 -228.252 -178.574
lowerback -0.173344 -1.9762 -5.9456
upperback 9.06392 -1.89101 -3.1609
thorax 9.8296 -1.17275 -0.209175
lowerneck -1.59151 0.869486 -0.121125
upperneck 5.10935 0.926001 5.53092
head 1.8506 0.593217 1.79219
rclavicle 9.38264e-014 1.90833e-014
rhumerus -51.4768 1.28718 -99.259
rradius 57.6403
rwrist -24.0703
rhand -20.0268 19.7755
rfingers 7.12502
rthumb 6.31393 -10.1104
lclavicle 9.38264e-014 1.90833e-014
lhumerus -25.1144 -26.4391 80.4401
lradius 86.902
lwrist -2.72607
lhand -36.4031 -17.0374
lfingers 7.12502
lthumb -9.4988 12.7285
rfemur -39.9655 -5.81892 15.1376
rtibia 61.8904
rfoot -20.6956 16.0973
rtoes -16.2887
lfemur 1.96045 8.81855 -22.7905
ltibia 29.9439
lfoot -25.443 -2.23725
ltoes -18.3758
66
root -32.906 18.2297 5.28916 -171.489 -228.096 -178.728
lowerback -0.0136542 -1.95992 -5.79578
upperback 9.08043 -1.89765 -3.07341
thorax 9.74722 -1.1681 -0.193209
lowerneck -2.07213 0.906545 0.207316
upperneck 4.983 0.972158 5.24782
head 1.89393 0.619578 1.64747
rclavicle 2.22639e-014 -2.54444e-014
rhumerus -51.6417 1.45494 -99.1407
rradius 58.6159
rwrist -24.253
rhand -20.2265 19.7201
rfingers 7.12502
rthumb 6.12118 -10.1715
lclavicle 2.22639e-014 -2.54444e-014
lhumerus -25.2545 -27.1611 80.1808
lradius 87.253
lwrist -2.63382
lhand -36.5873 -16.9619
lfingers 7.12502
lthumb -9.67649 12.7959
rfemur -40.8056 -5.78329 15.1027
rtibia 62.0719
rfoot -20.6811 16.0856
rtoes -16.5321
lfemur 2.24202 8.86534 -22.7064
ltibia 29.769
lfoot -25.6105 -2.065
ltoes -19.2226
67
root -32.8245 18.1989 5.36169 -171.417 -227.971 -178.883
lowerback 0.135119 -1.96452 -5.68515
upperback 9.07409 -1.9345 -2.94368
thorax 9.65075 -1.1835 -0.113029
lowerneck -2.54173 0.965888 0.491597
upperneck 4.91536 1.04687 4.91738
head 1.95419 0.658409 1.49745
rclavicle -3.89618e-014 7.95139e-015
rhumerus -51.8488 1.68636 -98.9525
rradius 59.6481
rwrist -24.3168
rhand -20.3811 19.5636
rfingers 7.12502
rthumb 5.97191 -10.3322
lclavicle -3.89618e-014 7.95139e-015
lhumerus -25.5001 -27.8619 80.019
lradius 87.6264
lwrist -2.47998
lhand -36.8033 -16.9067
lfingers 7.12502
lthumb -9.88487 12.8413
rfemur -41.6733 -5.85579 15.0932
rtibia 62.2444
rfoot -20.5863 16.1617
rtoes -16.3679
lfemur 2.51961 8.92062 -22.6103
ltibia 29.5821
lfoot -25.761 -1.971
ltoes -19.6109
68
root -32.7407 18.1689 5.4372 -171.359 -227.91 -179.065
lowerback 0.299478 -1.98789 -5.53972
upperback 9.02834 -2.00328 -2.80034
thorax 9.50086 -1.2118 -0.0381092
lowerneck -2.87224 1.02561 0.7348
upperneck 4.78395 1.1263 4.61854
head 1.96935 0.696153 1.36316
rclavicle 7.87187e-014 0
rhumerus -52.1714 1.93711 -98.7685
rradius 60.7575
rwrist -24.3903
rhand -20.5529 19.3739
rfingers 7.12502
rthumb 5.80602 -10.5266
lclavicle 7.87187e-014 0
lhumerus -25.8536 -28.5756 79.9557
lradius 87.9598
lwrist -2.25371
lhand -36.9247 -16.8311
lfingers 7.12502
lthumb -10.002 12.9112
rfemur -42.534 -6.03848 15.136
rtibia 62.3856
rfoot -20.4927 16.2724
rtoes -16.3209
lfemur 2.80602 8.92731 -22.4697
ltibia 29.3906
lfoot -25.9037 -1.96519
ltoes -19.6952
69
root -32.6536 18.1431 5.51513 -171.394 -227.898 -179.37
lowerback 0.480629 -2.01387 -5.29511
upperback 8.96745 -2.08407 -2.63054
thorax 9.3203 -1.23943 0.0104531
lowerneck -3.22128 1.08957 0.963159
upperneck 4.71916 1.20683 4.33764
head 2.01025 0.735715 1.23904
rclavicle 7.63333e-014 2.06736e-014
rhumerus -52.521 2.1799 -98.5595
rradius 61.922
rwrist -24.4204
rhand -20.7611 19.14
rfingers 7.12502
rthumb 5.60503 -10.7659
lclavicle 7.63333e-014 2.06736e-014
lhumerus -26.2563 -29.3188 79.9624
lradius 88.2187
lwrist -2.04497
lhand -37.0543 -16.7677
lfingers 7.12502
lthumb -10.127 12.9686
rfemur -43.3765 -6.24679 15.2729
rtibia 62.477
rfoot -20.2899 16.5106
rtoes -15.6593
lfemur 3.11397 8.92369 -22.2202
ltibia 29.1916
lfoot -26.0373 -1.99307
ltoes -19.7354
70
root -32.5632 18.1228 5.59834 -171.452 -227.945 -179.744
lowerback 0.599043 -2.06028 -5.02799
upperback 8.90308 -2.19171 -2.4119
thorax 9.17545 -1.28177 0.0935511
lowerneck -3.54624 1.1537 1.14339
upperneck 4.65533 1.2913 4.01263
head 2.04772 0.774405 1.10947
rclavicle -3.26007e-014 6.36111e-015
rhumerus -52.86 2.5074 -98.3312
rradius 63.1279
rwrist -24.415
rhand -21.1186 18.885
rfingers 7.12502
rthumb 5.25988 -11.0298
lclavicle -3.26007e-014 6.36111e-015
lhumerus -26.6959 -30.0859 80.0293
lradius 88.4669
lwrist -1.75925
lhand -37.131 -16.7089
lfingers 7.12502
lthumb -10.201 13.0238
rfemur -44.2137 -6.48362 15.4557
rtibia 62.5063
rfoot -19.933 16.8278
rtoes -14.3921
lfemur 3.40556 8.93244 -21.8914
ltibia 28.9854
lfoot -26.1018 -2.09348
ltoes -19.8375
71
root -32.4707 18.1077 5.6855 -171.571 -228.049 -180.219
lowerback 0.725161 -2.11417 -4.65161
upperback 8.80452 -2.31475 -2.20238
thorax 8.98235 -1.32261 0.106977
lowerneck -3.72794 1.20674 1.30567
upperneck 4.51825 1.36467 3.75335
head 2.03596 0.806054 1.00151
rclavicle -7.67309e-014 3.26007e-014
rhumerus -53.2222 2.79075 -98.151
rradius 64.3448
rwrist -24.3712
rhand -21.592 18.6351
rfingers 7.12502
rthumb 4.80278 -11.2905
lclavicle -7.67309e-014 3.26007e-014
lhumerus -27.2562 -30.8913 80.1546
lradius 88.6819
lwrist -1.40955
lhand -37.1187 -16.6534
lfingers 7.12502
lthumb -10.1892 13.0799
rfemur -45.0254 -6.78189 15.7421
rtibia 62.4924
rfoot -19.6677 17.0352
rtoes -13.5841
lfemur 3.69269 8.97776 -21.4399
ltibia 28.7587
lfoot -26.0862 -2.30945
ltoes -19.9406
72
root -32.3733 18.0952 5.77907 -171.617 -228.196 -180.614
lowerback 0.795835 -2.19395 -4.36443
upperback 8.68343 -2.46626 -1.9707
thorax 8.80508 -1.38577 0.189191
lowerneck -3.88072 1.27231 1.336
upperneck 4.44108 1.458 3.5451
head 2.0379 0.84729 0.933639
rclavicle 2.10712e-014 5.56597e-015
rhumerus -53.5727 3.12703 -97.9385
rradius 65.4715
rwrist -24.3082
rhand -22.0757 18.555
rfingers 7.12502
rthumb 4.33565 -11.3807
lclavicle 2.10712e-014 5.56597e-015
lhumerus -27.8786 -31.6964 80.3813
lradius 88.8115
lwrist -0.986982
lhand -37.0207 -16.6167
lfingers 7.12502
lthumb -10.0946 13.1212
rfemur -45.7979 -7.20711 16.0334
rtibia 62.4753
rfoot -19.6803 17.0702
rtoes -14.0922
lfemur 4.00962 9.03108 -21.0238
ltibia 28.4931
lfoot -25.9544 -2.44989
ltoes -20.5322
73
root -32.2729 18.0882 5.8771 -171.656 -228.346 -181.003
lowerback 0.825527 -2.27001 -4.05326
upperback 8.56416 -2.60908 -1.74721
thorax 8.6525 -1.44301 0.248081
lowerneck -3.92248 1.32035 1.28818
upperneck 4.25608 1.53736 3.36372
head 1.98436 0.878203 0.884862
rclavicle -7.67309e-014 3.81667e-014
rhumerus -53.8853 3.42015 -97.6995
rradius 66.5347
rwrist -24.1769
rhand -22.5552 18.7144
rfingers 7.12502
rthumb 3.87263 -11.2301
lclavicle -7.67309e-014 3.81667e-014
lhumerus -28.499 -32.4826 80.6898
lradius 88.823
lwrist -0.65068
lhand -36.8127 -16.5568
lfingers 7.12502
lthumb -9.89398 13.1907
rfemur -46.547 -7.67516 16.384
rtibia 62.4651
rfoot -19.9189 16.9527
rtoes -15.6796
lfemur 4.36068 9.09562 -20.5905
ltibia 28.1604
lfoot -25.6596 -2.60537
ltoes -21.6084
